<svg width="980" height="216" viewBox="0 0 980 216" fill="none" xmlns="http://www.w3.org/2000/svg">
<g clip-path="url(#clip0_539_1098)">
<path d="M90.3477 51.863C92.7363 51.863 94.6725 49.9179 94.6725 47.5184C94.6725 45.119 92.7363 43.1738 90.3477 43.1738C87.9592 43.1738 86.0229 45.119 86.0229 47.5184C86.0229 49.9179 87.9592 51.863 90.3477 51.863Z" fill="white"/>
<path d="M117.648 51.863C120.037 51.863 121.973 49.9179 121.973 47.5184C121.973 45.119 120.037 43.1738 117.648 43.1738C115.26 43.1738 113.323 45.119 113.323 47.5184C113.323 49.9179 115.26 51.863 117.648 51.863Z" fill="white"/>
<path d="M217.929 64.8972H138.731C140.083 60.2811 140.894 55.1219 140.894 49.9627C140.894 25.796 137.92 0 104.944 0C88.7258 0 69.2643 8.68917 68.994 49.9627C68.994 55.665 70.0752 61.0957 71.697 66.2549C67.1019 68.4272 63.8583 73.0433 63.8583 78.4741V94.4947C51.1542 99.3824 39.8016 109.972 39.8016 128.708V140.384H7.36566C5.20327 140.384 3.04087 141.199 1.68937 142.828C0.337874 144.729 -0.202725 146.901 0.0675749 149.074L10.339 206.911C10.6093 208.269 10.8796 209.355 11.6905 210.441C10.6093 210.712 9.79836 211.798 9.79836 212.885C9.79836 214.242 10.8796 215.328 12.2311 215.6H12.5014H37.0986H42.5046H103.322H167.383H191.71H192.521C192.791 215.6 193.061 215.6 193.061 215.328C196.846 214.514 199.819 211.255 199.819 207.454C199.819 203.109 196.305 199.308 191.71 199.308H170.897V182.744H217.929C225.227 182.744 231.444 176.77 231.444 169.167V78.4741C231.444 70.871 225.227 64.8972 217.929 64.8972ZM85.7525 26.6106C83.8604 29.3259 81.4277 30.9552 79.5356 30.9552C78.4544 30.9552 77.9138 30.6836 77.3732 29.869C77.3732 29.5975 77.103 29.5975 77.103 29.5975C78.1842 25.5244 79.5356 21.9945 81.1574 19.0076C81.9683 21.7229 83.5901 24.1667 85.7525 26.6106ZM91.4288 24.7098C91.1585 24.4383 90.8882 24.1667 90.6179 23.8952C87.6446 20.6368 85.7525 17.1068 85.2119 13.3053C86.2931 12.2191 87.3743 11.133 88.4555 10.3184C90.0773 15.206 93.5912 19.5506 98.7269 22.8091C104.403 26.339 111.161 28.2398 118.459 28.2398C123.324 28.2398 128.46 27.4252 133.325 25.5244C133.866 27.1537 134.136 28.7829 134.406 30.6836C121.162 35.5713 106.295 34.7567 96.0239 28.2398C94.1318 27.1537 92.7803 25.796 91.4288 24.7098ZM98.4566 5.9738C103.052 15.206 111.972 17.6499 120.621 17.6499C123.865 17.6499 126.838 17.1068 129.811 16.8353C130.352 17.9214 130.893 19.0076 131.433 20.0937C120.621 23.8952 109.539 23.0806 101.16 17.9214C96.8348 14.9345 93.8615 11.133 93.0506 7.33149C94.9427 7.05995 96.5645 6.51688 98.4566 5.9738ZM105.214 5.43073C114.404 5.43073 121.162 7.60302 125.757 11.6761C113.053 12.7622 107.647 9.77531 104.944 5.43073C104.944 5.43073 104.944 5.43073 105.214 5.43073ZM74.9406 49.9627C74.9406 44.8035 75.2109 39.9159 75.7515 35.8428C76.8326 36.3859 78.1842 36.6574 79.5356 36.6574C79.8059 36.6574 79.8059 36.6574 79.8059 36.6574C83.5901 36.3859 87.104 33.9421 89.807 30.4121C90.8882 31.2267 91.9694 32.0413 93.3209 32.8559C100.349 37.2005 108.728 39.3728 117.378 39.3728C123.324 39.3728 129.541 38.2866 135.217 36.3859C135.488 40.4589 135.758 45.0751 135.758 49.9627C136.028 55.1219 135.217 60.2811 133.596 64.8972H77.3732C77.3732 64.8972 77.3733 64.8972 77.103 64.8972C75.7515 60.2811 74.9406 55.1219 74.9406 49.9627ZM5.47357 148.259C5.20327 147.444 5.47357 146.901 5.74387 146.63C6.01417 146.358 6.55476 146.087 7.09536 146.087H46.5591C48.1809 146.087 49.8027 147.444 50.073 149.074L60.3444 206.911C60.6147 207.725 60.3444 208.269 60.0741 208.54C59.8038 208.812 59.2632 209.083 58.7226 209.083H38.1798L43.5858 177.042V176.499C43.5858 172.154 39.5313 168.624 36.2877 168.624H25.746C22.5024 168.624 18.7182 171.883 18.4479 176.227L14.6637 200.122L5.47357 148.259ZM32.2332 209.083H19.2588C18.9885 209.083 18.9885 209.083 18.7182 209.083L23.5836 177.042V176.499C23.5836 175.413 24.9351 174.326 25.2054 174.326H35.7471C36.2877 174.598 37.3689 175.413 37.3689 176.499L32.2332 209.083ZM191.71 204.739C193.061 204.739 194.143 205.825 194.143 207.182C194.143 208.54 193.061 209.626 191.71 209.626H103.322C101.971 209.626 100.889 208.54 100.889 207.182C100.889 205.825 101.971 204.739 103.322 204.739H124.405H170.897H191.71ZM103.322 199.308C98.9972 199.308 95.213 202.838 95.213 207.454C95.213 208.54 95.4833 209.355 95.7536 210.169H65.4801C66.0207 208.812 66.291 207.182 66.0207 205.825L55.7493 147.987C55.2087 143.643 51.1542 140.384 46.8294 140.384H45.2076V128.708C45.2076 112.145 55.479 104.27 63.8583 100.74V169.167C63.8583 176.77 70.0752 182.744 77.3732 182.744H124.405V199.308H103.322ZM130.082 199.036V125.178C130.082 120.834 134.136 117.304 136.569 117.304H158.733C161.436 117.304 165.221 120.834 165.221 125.178V199.036H130.082ZM225.768 169.167C225.768 173.512 222.254 177.042 217.929 177.042H170.897V125.178C170.897 117.575 164.139 111.602 158.733 111.602H136.569C130.893 111.602 124.405 117.575 124.405 125.178V177.042H77.3732C73.0485 177.042 69.5346 173.512 69.5346 169.167V78.4741C69.5346 74.1295 73.0485 70.5995 77.3732 70.5995H217.929C222.254 70.5995 225.768 74.1295 225.768 78.4741V169.167Z" fill="white"/>
<path d="M338.045 80.7146C338.045 88.244 336.194 93.3374 332.49 95.9948C330.859 97.1907 328.985 97.7886 326.869 97.7886C325.723 97.7886 324.797 97.6779 324.091 97.4564C323.254 97.2793 322.427 96.9139 321.611 96.3602C320.796 95.8066 320.079 95.1976 319.462 94.5333C317.213 96.5706 314.282 97.5893 310.666 97.5893C306.478 97.5893 303.182 96.3381 300.779 93.8357C298.377 91.3333 297.175 87.9118 297.175 83.5714C297.175 80.8253 297.737 78.4004 298.862 76.2966C299.986 74.1928 301.573 72.5652 303.623 71.4136C305.673 70.2621 308.043 69.6863 310.732 69.6863C312.937 69.6863 314.877 70.1292 316.552 71.015V69.952H324.356V86.6274C324.356 87.5132 324.499 88.3547 324.786 89.152C325.072 89.9492 325.524 90.4585 326.141 90.68C327.464 90.9014 328.467 90.1485 329.151 88.4212C329.834 86.6938 330.176 84.125 330.176 80.7146C330.176 75.3998 328.677 71.5686 325.679 69.2212C322.46 66.6081 317.743 65.3015 311.526 65.3015C307.558 65.3015 304.218 66.143 301.507 67.8261C298.795 69.5091 296.778 71.7126 295.456 74.4364C294.133 77.1603 293.472 80.0281 293.472 83.0399C293.472 88.1776 294.772 92.5845 297.374 96.2606C299.975 99.9367 304.538 101.775 311.063 101.775C313.488 101.775 315.549 101.575 317.247 101.177C318.944 100.778 320.234 100.346 321.115 99.8813C321.997 99.4163 322.504 99.0952 322.636 98.918L327.596 103.236C324.202 106.735 318.735 108.485 311.195 108.485C305.817 108.485 301.209 107.477 297.374 105.462C293.538 103.447 290.628 100.535 288.644 96.7256C286.66 92.9167 285.668 88.3547 285.668 83.0399C285.668 79.7624 286.241 76.6399 287.387 73.6724C288.534 70.705 290.165 68.0697 292.281 65.7666C294.662 63.2863 297.495 61.3929 300.779 60.0863C304.064 58.7797 307.646 58.1264 311.526 58.1264C319.727 58.1264 326.119 59.9866 330.705 63.7071C335.598 67.7375 338.045 73.4067 338.045 80.7146ZM316.552 81.844C316.464 80.2939 316.034 79.0094 315.263 77.9907C314.491 76.9721 312.981 76.4627 310.732 76.4627C308.793 76.4627 307.415 77.1935 306.599 78.6551C305.783 80.1167 305.376 81.7554 305.376 83.5714C305.376 86.0959 305.905 87.9007 306.963 88.9859C308.021 90.071 309.255 90.6136 310.666 90.6136C312.342 90.6136 313.73 90.1596 314.833 89.2516C315.935 88.3437 316.508 86.8931 316.552 84.9001V81.844ZM355.571 68.6897C356.408 67.5382 357.852 66.5084 359.902 65.6005C361.953 64.6925 364.19 64.2385 366.615 64.2385C370.362 64.2385 373.614 65.0801 376.37 66.7631C379.125 68.4461 381.23 70.7382 382.685 73.6392C384.14 76.5402 384.868 79.7624 384.868 83.3056C384.868 86.8489 384.14 90.071 382.685 92.972C381.23 95.873 379.125 98.1651 376.37 99.8481C373.614 101.531 370.362 102.373 366.615 102.373C364.102 102.373 361.886 101.941 359.969 101.077C358.051 100.214 356.585 99.1173 355.571 97.7886V113.335H345.783V65.0358H355.571V68.6897ZM357.885 90.7796C359.693 92.7063 362.118 93.6696 365.16 93.6696C368.246 93.6696 370.682 92.7063 372.468 90.7796C374.253 88.853 375.146 86.3617 375.146 83.3056C375.146 80.3381 374.231 77.88 372.402 75.9312C370.572 73.9825 368.158 73.0081 365.16 73.0081C362.074 73.0081 359.638 73.9271 357.852 75.7651C356.067 77.6032 355.174 80.1167 355.174 83.3056C355.174 86.3617 356.078 88.853 357.885 90.7796ZM410.263 74.5693C408.367 75.0344 406.626 76.1305 405.038 77.8579C403.451 79.5852 402.658 82.1098 402.658 85.4316V101.575H392.804V65.0358H402.658V69.8856C404.289 67.7153 406.284 66.2427 408.643 65.4676C411.001 64.6925 413.151 64.3271 415.091 64.3714V74.071C413.768 73.9382 412.159 74.1043 410.263 74.5693ZM428.284 99.8813C425.264 98.1762 422.872 95.862 421.109 92.9388C419.345 90.0156 418.463 86.8267 418.463 83.372C418.463 79.9617 419.345 76.7949 421.109 73.8717C422.872 70.9486 425.264 68.6344 428.284 66.9292C431.304 65.224 434.6 64.3714 438.171 64.3714C441.742 64.3714 445.049 65.224 448.091 66.9292C451.133 68.6344 453.547 70.9486 455.333 73.8717C457.118 76.7949 458.011 79.9617 458.011 83.372C458.011 86.8267 457.118 90.0156 455.333 92.9388C453.547 95.862 451.133 98.1762 448.091 99.8813C445.049 101.587 441.742 102.439 438.171 102.439C434.6 102.439 431.304 101.587 428.284 99.8813ZM433.145 74.4364C431.602 75.3444 430.389 76.5845 429.508 78.1568C428.626 79.7292 428.185 81.4676 428.185 83.372C428.185 85.3651 428.615 87.1478 429.475 88.7201C430.334 90.2924 431.525 91.5326 433.046 92.4405C434.567 93.3485 436.275 93.8025 438.171 93.8025C440.023 93.8025 441.709 93.3485 443.23 92.4405C444.751 91.5326 445.953 90.2814 446.834 88.6869C447.716 87.0925 448.157 85.3208 448.157 83.372C448.157 81.4676 447.716 79.7292 446.834 78.1568C445.953 76.5845 444.751 75.3444 443.23 74.4364C441.709 73.5285 440.023 73.0745 438.171 73.0745C436.363 73.0745 434.688 73.5285 433.145 74.4364ZM498.584 110.777C495.343 113.811 490.835 115.328 485.059 115.328C478.137 115.328 472.34 113.49 467.666 109.813L472.494 102.771C473.993 103.967 475.768 104.942 477.818 105.694C479.868 106.447 482.039 106.824 484.332 106.824C490.548 106.824 493.657 103.989 493.657 98.3201V97.7222C491.011 99.8924 487.617 100.978 483.472 100.978C479.637 100.978 476.264 100.169 473.354 98.5526C470.444 96.936 468.218 94.7326 466.674 91.9423C465.131 89.152 464.36 86.0738 464.36 82.7077C464.36 79.2973 465.131 76.2081 466.674 73.4399C468.218 70.6717 470.433 68.4683 473.321 66.8295C476.209 65.1908 479.592 64.3714 483.472 64.3714C487.617 64.3714 491.011 65.4565 493.657 67.6268V65.0358H503.444V98.3201C503.444 103.591 501.824 107.743 498.584 110.777ZM489.127 91.3111C490.648 90.4475 491.849 89.2516 492.731 87.7236C493.613 86.1956 494.054 84.5236 494.054 82.7077C494.054 80.8475 493.613 79.1644 492.731 77.6586C491.849 76.1527 490.648 74.9679 489.127 74.1043C487.606 73.2406 485.919 72.8088 484.067 72.8088C481.069 72.8088 478.656 73.7499 476.826 75.6323C474.996 77.5146 474.081 79.8731 474.081 82.7077C474.081 85.6309 474.974 88.0115 476.76 89.8495C478.545 91.6876 480.981 92.6066 484.067 92.6066C485.919 92.6066 487.606 92.1748 489.127 91.3111ZM530.559 74.5693C528.663 75.0344 526.922 76.1305 525.335 77.8579C523.747 79.5852 522.954 82.1098 522.954 85.4316V101.575H513.1V65.0358H522.954V69.8856C524.585 67.7153 526.58 66.2427 528.939 65.4676C531.298 64.6925 533.447 64.3271 535.387 64.3714V74.071C534.064 73.9382 532.455 74.1043 530.559 74.5693ZM568.189 97.9215C567.351 99.073 565.907 100.103 563.857 101.011C561.807 101.919 559.569 102.373 557.145 102.373C553.397 102.373 550.145 101.531 547.39 99.8481C544.634 98.1651 542.529 95.873 541.074 92.972C539.619 90.071 538.892 86.8489 538.892 83.3056C538.892 79.7624 539.619 76.5402 541.074 73.6392C542.529 70.7382 544.634 68.4461 547.39 66.7631C550.145 65.0801 553.397 64.2385 557.145 64.2385C559.658 64.2385 561.873 64.6704 563.791 65.534C565.709 66.3977 567.175 67.4939 568.189 68.8226V65.0358H577.977V101.575H568.189V97.9215ZM565.874 75.8316C564.066 73.9049 561.642 72.9416 558.6 72.9416C555.513 72.9416 553.077 73.9049 551.292 75.8316C549.506 77.7582 548.613 80.2496 548.613 83.3056C548.613 86.2731 549.528 88.7312 551.358 90.68C553.188 92.6288 555.601 93.6032 558.6 93.6032C561.686 93.6032 564.122 92.6841 565.907 90.8461C567.693 89.008 568.586 86.4945 568.586 83.3056C568.586 80.2496 567.682 77.7582 565.874 75.8316ZM642.026 68.4904C644.517 71.2364 645.763 75.0676 645.763 79.9838V101.575H635.777V79.9838C635.777 77.3707 635.127 75.4883 633.826 74.3368C632.525 73.1852 630.817 72.6094 628.701 72.6094C626.937 72.6094 625.35 73.2738 623.939 74.6025C622.528 75.9312 621.801 78.1458 621.757 81.2461V101.575H611.771V79.9838C611.771 77.3707 611.12 75.4883 609.82 74.3368C608.519 73.1852 606.833 72.6094 604.76 72.6094C602.865 72.6094 601.222 73.3181 599.834 74.7354C598.445 76.1527 597.75 78.6551 597.75 82.2426L597.684 101.575H587.83V65.0358H597.684V68.3576C598.963 67.206 600.506 66.2538 602.314 65.5008C604.121 64.7479 605.775 64.3714 607.273 64.3714C612.388 64.3714 616.29 66.0323 618.979 69.3541C620.346 67.8039 622.043 66.5859 624.071 65.7001C626.099 64.8143 628.304 64.3714 630.685 64.3714C635.755 64.3714 639.535 65.7444 642.026 68.4904ZM710.276 68.4904C712.767 71.2364 714.012 75.0676 714.012 79.9838V101.575H704.026V79.9838C704.026 77.3707 703.376 75.4883 702.075 74.3368C700.775 73.1852 699.066 72.6094 696.95 72.6094C695.186 72.6094 693.599 73.2738 692.188 74.6025C690.778 75.9312 690.05 78.1458 690.006 81.2461V101.575H680.02V79.9838C680.02 77.3707 679.37 75.4883 678.069 74.3368C676.768 73.1852 675.082 72.6094 673.01 72.6094C671.114 72.6094 669.472 73.3181 668.083 74.7354C666.694 76.1527 666 78.6551 666 82.2426L665.934 101.575H656.08V65.0358H665.934V68.3576C667.212 67.206 668.755 66.2538 670.563 65.5008C672.371 64.7479 674.024 64.3714 675.523 64.3714C680.637 64.3714 684.539 66.0323 687.228 69.3541C688.595 67.8039 690.293 66.5859 692.321 65.7001C694.349 64.8143 696.553 64.3714 698.934 64.3714C704.004 64.3714 707.785 65.7444 710.276 68.4904ZM733.555 100.712C730.535 99.5159 727.944 97.4897 725.784 94.6329C723.624 91.7762 722.544 88.0447 722.544 83.4385C722.544 78.8323 723.635 75.1119 725.817 72.2773C728 69.4427 730.612 67.4275 733.654 66.2316C736.696 65.0358 739.584 64.4378 742.317 64.4378C745.492 64.4378 748.512 65.1465 751.378 66.5638C754.243 67.9811 756.591 70.0627 758.421 72.8088C760.25 75.5548 761.209 78.8101 761.298 82.5748C761.298 83.7264 761.276 84.7229 761.231 85.5644C761.187 86.4059 761.143 86.9374 761.099 87.1589H732.397C732.926 89.7277 734.249 91.4772 736.365 92.4073C738.482 93.3374 740.466 93.8025 742.317 93.8025C744.698 93.8025 746.594 93.3706 748.005 92.507C749.416 91.6433 750.628 90.6578 751.642 89.5506L759.314 94.0018C755.169 99.671 749.504 102.506 742.317 102.506C739.496 102.506 736.575 101.908 733.555 100.712ZM735.572 75.1672C733.852 76.5181 732.882 78.1679 732.662 80.1167H750.849C750.716 78.9651 750.275 77.8579 749.526 76.7949C748.776 75.7319 747.773 74.8572 746.517 74.1707C745.26 73.4842 743.838 73.1409 742.251 73.1409C739.518 73.1409 737.291 73.8164 735.572 75.1672ZM786.627 74.5693C784.731 75.0344 782.989 76.1305 781.402 77.8579C779.815 79.5852 779.021 82.1098 779.021 85.4316V101.575H769.167V65.0358H779.021V69.8856C780.653 67.7153 782.648 66.2427 785.006 65.4676C787.365 64.6925 789.514 64.3271 791.454 64.3714V74.071C790.132 73.9382 788.522 74.1043 786.627 74.5693ZM795.29 96.7256L800.448 89.8163C802.036 90.9236 803.887 91.8537 806.004 92.6066C808.12 93.3596 810.192 93.736 812.22 93.736C813.719 93.736 814.965 93.426 815.957 92.8059C816.949 92.1859 817.445 91.4108 817.445 90.4807C817.445 89.5506 816.883 88.8973 815.758 88.5208C814.634 88.1444 813.543 87.8786 812.485 87.7236C811.427 87.5686 810.743 87.4689 810.435 87.4246C807.789 86.9817 805.508 86.4502 803.59 85.8302C801.672 85.2101 799.93 84.1028 798.365 82.5084C796.8 80.9139 796.018 78.7215 796.018 75.9312C796.018 71.325 797.682 68.2468 801.011 66.6967C804.339 65.1465 807.679 64.3714 811.03 64.3714C813.896 64.3714 816.541 64.7922 818.966 65.6337C821.391 66.4752 823.793 67.8039 826.174 69.6198L821.016 76.3963C819.296 75.3776 817.599 74.5582 815.924 73.9382C814.248 73.3181 812.507 73.0081 810.699 73.0081C809.597 73.0081 808.528 73.2517 807.492 73.7389C806.456 74.2261 805.938 74.8904 805.938 75.7319C805.938 76.7949 806.654 77.5478 808.087 77.9907C809.52 78.4337 811.096 78.7658 812.815 78.9873C815.902 79.5188 818.37 80.0724 820.222 80.6482C822.074 81.224 823.716 82.298 825.149 83.8703C826.582 85.4426 827.298 87.6682 827.298 90.5471C827.298 94.3561 825.998 97.2903 823.397 99.3499C820.795 101.409 817.114 102.439 812.352 102.439C805.739 102.439 800.052 100.535 795.29 96.7256ZM844.427 59.6213C843.369 60.6621 842.09 61.1825 840.591 61.1825C839.048 61.1825 837.737 60.6621 836.656 59.6213C835.576 58.5804 835.036 57.3071 835.036 55.8012C835.036 54.3396 835.576 53.0884 836.656 52.0476C837.737 51.0067 839.048 50.4863 840.591 50.4863C842.09 50.4863 843.369 51.0067 844.427 52.0476C845.485 53.0884 846.014 54.3396 846.014 55.8012C846.014 57.3071 845.485 58.5804 844.427 59.6213ZM835.631 65.1022H845.551V101.575H835.631V65.1022ZM885.793 68.424C888.064 71.1257 889.199 74.979 889.199 79.9838V101.575H879.081V79.9838C879.081 75.0676 876.744 72.6094 872.071 72.6094C870.263 72.6094 868.632 73.3292 867.177 74.7686C865.722 76.2081 865.038 78.6994 865.127 82.2426V101.575H855.273V65.0358H865.127V68.2911C866.317 67.0953 867.816 66.143 869.624 65.4344C871.431 64.7257 873.173 64.3714 874.848 64.3714C879.874 64.3714 883.523 65.7223 885.793 68.424ZM931.359 110.777C928.118 113.811 923.61 115.328 917.835 115.328C910.913 115.328 905.115 113.49 900.442 109.813L905.269 102.771C906.768 103.967 908.543 104.942 910.593 105.694C912.643 106.447 914.815 106.824 917.107 106.824C923.324 106.824 926.432 103.989 926.432 98.3201V97.7222C923.787 99.8924 920.392 100.978 916.248 100.978C912.412 100.978 909.039 100.169 906.129 98.5526C903.219 96.936 900.993 94.7326 899.45 91.9423C897.907 89.152 897.135 86.0738 897.135 82.7077C897.135 79.2973 897.907 76.2081 899.45 73.4399C900.993 70.6717 903.208 68.4683 906.096 66.8295C908.984 65.1908 912.368 64.3714 916.248 64.3714C920.392 64.3714 923.787 65.4565 926.432 67.6268V65.0358H936.22V98.3201C936.22 103.591 934.6 107.743 931.359 110.777ZM921.902 91.3111C923.423 90.4475 924.624 89.2516 925.506 87.7236C926.388 86.1956 926.829 84.5236 926.829 82.7077C926.829 80.8475 926.388 79.1644 925.506 77.6586C924.624 76.1527 923.423 74.9679 921.902 74.1043C920.381 73.2406 918.695 72.8088 916.843 72.8088C913.845 72.8088 911.431 73.7499 909.601 75.6323C907.771 77.5146 906.857 79.8731 906.857 82.7077C906.857 85.6309 907.75 88.0115 909.535 89.8495C911.321 91.6876 913.757 92.6066 916.843 92.6066C918.695 92.6066 920.381 92.1748 921.902 91.3111ZM976.594 68.424C978.865 71.1257 980 74.979 980 79.9838V101.575H969.948V79.9838C969.948 77.3707 969.297 75.4883 967.997 74.3368C966.696 73.1852 964.988 72.6094 962.871 72.6094C961.064 72.6094 959.433 73.3292 957.978 74.7686C956.523 76.2081 955.839 78.6994 955.927 82.2426V101.575H946.074V51.2836H955.927V68.2911C957.118 67.0953 958.617 66.143 960.425 65.4344C962.232 64.7257 963.974 64.3714 965.649 64.3714C970.675 64.3714 974.324 65.7223 976.594 68.424Z" fill="white"/>
<path d="M376.422 144.721H370.264V163.226H365.889V144.721H359.73V140.858H376.422V144.721ZM412.476 163.226H408.157V153.316H399.379V163.226H395.059V140.858H399.379V149.732H408.157V140.858H412.476V163.226ZM449.283 163.226H444.517L442.929 158.131C442.762 157.571 442.553 157.057 442.302 156.591C442.051 156.124 441.749 155.723 441.396 155.387C441.043 155.051 440.621 154.79 440.128 154.603C439.636 154.417 439.055 154.323 438.387 154.323H436.77V163.226H432.507V140.858L441.313 140.83C442.26 140.83 443.143 140.993 443.96 141.32C444.777 141.647 445.483 142.099 446.078 142.678C446.672 143.256 447.137 143.937 447.471 144.721C447.806 145.505 447.973 146.354 447.973 147.269C447.973 147.922 447.871 148.557 447.666 149.172C447.462 149.788 447.174 150.357 446.802 150.88C446.431 151.403 445.99 151.864 445.479 152.266C444.968 152.667 444.406 152.97 443.793 153.176C444.499 153.437 445.075 153.815 445.521 154.309C445.966 154.804 446.319 155.396 446.58 156.087C446.71 156.404 446.83 156.722 446.942 157.039C447.053 157.356 447.169 157.687 447.29 158.033C447.411 158.378 447.541 158.751 447.68 159.152C447.82 159.554 447.973 159.997 448.14 160.482C448.344 161.098 448.535 161.625 448.711 162.064C448.888 162.502 449.078 162.89 449.283 163.226ZM443.626 147.577C443.626 147.054 443.528 146.578 443.333 146.149C443.138 145.72 442.873 145.346 442.539 145.029C442.204 144.712 441.81 144.465 441.355 144.287C440.899 144.11 440.412 144.021 439.892 144.021H436.77V150.992H439.892C440.412 150.992 440.899 150.913 441.355 150.754C441.81 150.595 442.204 150.367 442.539 150.068C442.873 149.77 443.138 149.41 443.333 148.99C443.528 148.57 443.626 148.099 443.626 147.577ZM472.1 163.226H467.781V140.858H472.1V163.226ZM511.359 140.83L502.915 163.226H498.958L490.319 140.83H495.112L500.909 156.563L506.621 140.83H511.359ZM544.292 163.226H529.578V140.858H544.292V144.441H533.814V149.788H544.152V153.288H533.814V159.446H544.292V163.226ZM610.603 163.226H605.866L603.804 158.746H592.991L590.901 163.226H586.164L596.698 140.83H600.07L610.603 163.226ZM602.104 155.135L598.398 147.073L594.636 155.135H602.104ZM647.215 163.226H642.979L632.919 147.521V163.226H628.683V140.83H633.532L642.979 155.443V140.83H647.215V163.226ZM687.059 152.028C687.059 153.577 686.798 155.028 686.278 156.381C685.758 157.734 685.034 158.919 684.105 159.936C683.176 160.953 682.066 161.756 680.775 162.344C679.483 162.932 678.076 163.226 676.553 163.226H667.245V140.83H676.553C678.076 140.83 679.483 141.129 680.775 141.726C682.066 142.323 683.176 143.126 684.105 144.133C685.034 145.141 685.758 146.326 686.278 147.689C686.798 149.051 687.059 150.497 687.059 152.028ZM682.683 151.916C682.702 150.871 682.544 149.882 682.21 148.948C681.875 148.015 681.392 147.199 680.761 146.499C680.129 145.799 679.353 145.249 678.434 144.847C677.514 144.446 676.478 144.245 675.327 144.245H671.565V159.53H675.327C676.46 159.53 677.477 159.339 678.378 158.956C679.279 158.574 680.045 158.042 680.677 157.361C681.309 156.68 681.796 155.877 682.14 154.953C682.484 154.029 682.665 153.017 682.683 151.916ZM750.416 140.83V152.98C750.416 154.473 750.193 155.863 749.748 157.151C749.302 158.438 748.656 159.563 747.811 160.524C746.966 161.485 745.934 162.241 744.718 162.792C743.501 163.342 742.112 163.617 740.552 163.617C739.028 163.617 737.653 163.347 736.427 162.806C735.201 162.264 734.156 161.523 733.292 160.58C732.428 159.638 731.764 158.527 731.3 157.249C730.835 155.97 730.603 154.594 730.603 153.12V140.83H734.922V153.148C734.922 154.006 735.043 154.813 735.285 155.569C735.526 156.325 735.879 156.983 736.344 157.543C736.808 158.103 737.389 158.546 738.085 158.872C738.782 159.199 739.576 159.362 740.468 159.362C741.415 159.362 742.237 159.208 742.934 158.9C743.631 158.592 744.207 158.163 744.662 157.613C745.117 157.062 745.461 156.414 745.693 155.667C745.925 154.921 746.041 154.099 746.041 153.204V140.83H750.416ZM785.495 148.361C785.495 149.424 785.295 150.418 784.896 151.342C784.496 152.266 783.953 153.068 783.266 153.749C782.578 154.431 781.77 154.963 780.841 155.345C779.912 155.728 778.928 155.919 777.887 155.919H774.209V163.226H769.89V140.858H777.887C778.928 140.858 779.912 141.049 780.841 141.432C781.77 141.815 782.578 142.342 783.266 143.014C783.953 143.685 784.496 144.479 784.896 145.393C785.295 146.308 785.495 147.297 785.495 148.361ZM781.204 148.305C781.204 147.726 781.097 147.185 780.883 146.681C780.669 146.177 780.377 145.738 780.005 145.365C779.634 144.992 779.197 144.693 778.696 144.469C778.194 144.245 777.655 144.133 777.079 144.133H774.209V152.588H777.079C777.655 152.588 778.194 152.471 778.696 152.238C779.197 152.004 779.634 151.692 780.005 151.3C780.377 150.908 780.669 150.455 780.883 149.942C781.097 149.429 781.204 148.883 781.204 148.305ZM819.208 163.226H804.132V140.858H808.535V159.026H819.208V163.226ZM841.886 163.226H837.567V140.858H841.886V163.226ZM876.63 144.581H866.153V149.788H876.491V153.316H866.153V163.226H861.917V140.858H876.63V144.581ZM910.567 144.721H904.408V163.226H900.033V144.721H893.874V140.858H910.567V144.721Z" fill="white"/>
</g>
<defs>
<clipPath id="clip0_539_1098">
<rect width="980" height="215.6" fill="white"/>
</clipPath>
</defs>
</svg>
